<svg width="492" height="185" viewBox="0 0 492 185" fill="none" xmlns="http://www.w3.org/2000/svg">
<g clip-path="url(#clip0)">
<path d="M158.8 141.4L107.7 18.1C103.1 6.9 92.7 0 80.6 0C68.5 0 58.1 6.9 53.4 18.1L2.39999 141.4C-2.60001 153.5 0.499986 167.6 10.2 176.5C16 181.8 23.6 184.8 31.4 184.8C36.4 184.8 41.4 183.6 45.8 181.3C56.5 175.8 68.5 172.9 80.6 172.9C92.7 172.9 104.7 175.8 115.4 181.3C119.8 183.6 124.8 184.8 129.8 184.8C137.7 184.8 145.2 181.9 151 176.5C160.7 167.7 163.8 153.6 158.8 141.4ZM146.3 171.4C141.7 175.6 135.8 177.8 129.8 177.8C126 177.8 122.2 176.9 118.6 175.1C106.7 169 93.6 165.9 80.6 165.9C67.6 165.9 54.5 169 42.6 175.1C39 176.9 35.2 177.8 31.4 177.8C25.4 177.8 19.5 175.6 14.9 171.4C7.39999 164.5 4.89999 153.7 8.89999 144.2C25.9 103.1 42.9 62 60 20.9C63.8 11.6 72.2 7 80.6 7C89 7 97.4 11.6 101.2 20.8C118.2 61.9 135.3 103 152.3 144.1C156.2 153.7 153.7 164.5 146.3 171.4Z" fill="#009845"/>
<path d="M137.4 142.1C122.5 106.2 107.7 70.3 92.7998 34.4C88.2998 23.6 72.9998 23.6 68.4998 34.4C53.5998 70.3 38.7998 106.2 23.8998 142.1C21.3998 148.1 23.1998 154.3 27.3998 158.2C31.5998 162.1 37.9998 163.4 43.6998 160.5C66.8998 148.8 94.2998 148.8 117.5 160.5C123.3 163.4 129.6 162.1 133.8 158.2C138.1 154.3 139.8 148.1 137.4 142.1ZM101.2 127.7C100.1 128.8 98.4998 129.4 96.7998 128.7C86.2998 124.9 74.7998 124.9 64.2998 128.7C62.5998 129.3 60.9998 128.8 59.8998 127.7C58.7998 126.6 58.3998 124.9 59.0998 123.2C64.9998 109 70.8998 94.8 76.7998 80.6C78.1998 77.2 82.9998 77.2 84.4998 80.6C90.3998 94.8 96.2998 109 102.2 123.2C102.8 124.9 102.3 126.6 101.2 127.7Z" fill="#978B87"/>
<path d="M262.8 74.1C271.6 74.1 276.8 76 280.8 79.4C285.6 83.6 288.5 90 288.5 97C288.5 104 285.6 110.4 280.8 114.6C276.8 118 271.6 119.9 262.8 119.9H253.3V74.1H262.8ZM284.9 71.5C279.8 67.7 273.3 65.6 263.3 65.6H248.8C246.4 65.6 244.4 67.6 244.4 70V124.3C244.4 126.7 246.4 128.7 248.8 128.7H263.3C273.3 128.7 279.9 126.5 285 122.8C292.7 117 297.5 107.7 297.5 97.2C297.5 86.7 292.6 77.3 284.9 71.5ZM320 103.7C318.5 103.7 318.2 104.4 318.2 104.4L328.3 80.3L338.4 104.4C338.4 104.4 338.1 103.7 336.6 103.7H320ZM328.2 64.8C326.5 64.8 324.9 65.8 324.2 67.5L301.1 122.9C300.2 125.1 301.2 127.6 303.4 128.5C305.6 129.4 308.1 128.4 309 126.2L313 116.8C314.1 114.2 316.7 112.4 319.6 112.3H336.5C339.5 112.4 342 114.2 343.1 116.8L347.1 126.2C348 128.4 350.5 129.5 352.7 128.5C354.9 127.6 355.9 125.1 355 122.9L331.9 67.5C331.5 65.8 329.9 64.8 328.2 64.8ZM198.6 103.7C197.1 103.7 196.8 104.4 196.8 104.4L206.9 80.3L217 104.4C217 104.4 216.7 103.7 215.2 103.7H198.6ZM206.8 64.8C205.1 64.8 203.5 65.8 202.8 67.5L179.7 122.9C178.8 125.1 179.8 127.6 182 128.5C184.2 129.4 186.7 128.4 187.6 126.2L191.6 116.8C192.7 114.2 195.3 112.4 198.2 112.3H215.1C218.1 112.4 220.6 114.2 221.7 116.8L225.7 126.2C226.6 128.4 229.1 129.5 231.3 128.5C233.5 127.6 234.6 125.1 233.6 122.9L210.5 67.5C210.1 65.8 208.5 64.8 206.8 64.8ZM456.4 103.7C454.9 103.7 454.6 104.4 454.6 104.4L464.7 80.3L474.8 104.4C474.8 104.4 474.5 103.7 473 103.7H456.4ZM464.6 64.8C462.9 64.8 461.3 65.8 460.6 67.5L437.5 122.9C436.6 125.1 437.6 127.6 439.8 128.5C442 129.4 444.5 128.4 445.4 126.2L449.4 116.8C450.5 114.2 453.1 112.4 456 112.3H472.9C475.9 112.4 478.4 114.2 479.5 116.8L483.5 126.2C484.4 128.4 486.9 129.5 489.1 128.5C491.3 127.6 492.3 125.1 491.4 122.9L468.3 67.5C467.9 65.8 466.3 64.8 464.6 64.8ZM392.6 113.6L374.8 85.7V124.4C374.8 126.9 372.8 128.9 370.3 128.9C367.8 128.9 365.8 126.9 365.8 124.4V68.8C365.8 66.6 367.6 64.8 369.8 64.8C371.2 64.8 372.4 65.5 373.1 66.6L396.4 103.5L419.7 66.6C420.4 65.5 421.6 64.8 423 64.8C425.2 64.8 427 66.6 427 68.8V124.4C427 126.9 425 128.9 422.5 128.9C420 128.9 418 126.9 418 124.4V85.7L400.2 113.6C399.4 114.8 398 115.7 396.4 115.7C394.8 115.7 393.4 114.9 392.6 113.6Z" fill="#978B87"/>
</g>
<defs>
<clipPath id="clip0">
<rect width="492" height="184.8" fill="white"/>
</clipPath>
</defs>
</svg>
