<?xml version="1.0" encoding="utf-8"?>
<!-- Generator: Adobe Illustrator 23.1.1, SVG Export Plug-In . SVG Version: 6.00 Build 0)  -->
<svg version="1.1" id="katman_1" xmlns="http://www.w3.org/2000/svg" xmlns:xlink="http://www.w3.org/1999/xlink" x="0px" y="0px"
	 viewBox="0 0 272.3 104.4" style="enable-background:new 0 0 272.3 104.4;" xml:space="preserve">
<style type="text/css">
	.st0{fill:none;}
	.st1{fill:#FFFFFF;}
	.st2{fill:#00953B;}
	.st3{fill:#1D1D1B;}
	.st4{fill-rule:evenodd;clip-rule:evenodd;fill:#8DD2A5;}
	.st5{fill-rule:evenodd;clip-rule:evenodd;fill:#00AB61;}
	.st6{fill-rule:evenodd;clip-rule:evenodd;fill:#52BD7F;}
	.st7{fill:#C7E8D1;}
	.st8{fill-rule:evenodd;clip-rule:evenodd;fill:#1D1D1B;}
</style>
<title>Varlık 1logo</title>
<g>
	<g id="katman_1-2">
		<g>
			<path d="M99.2,44.8h8.2v16.7c2.6-0.3,5-1.7,6.6-3.8c1.8-2.3,2.7-5.2,2.6-8.1c0.1-1.6-0.4-3.3-1.4-4.5c-1.1-1.1-2.6-1.7-4.1-1.6
				H97.8l1.8-7.5h11.3c2-0.1,4,0.2,5.9,0.6c1.5,0.4,2.9,1.2,4,2.3c1.3,1.2,2.2,2.7,2.8,4.3c0.6,1.9,1,4,0.9,6c0,2.8-0.5,5.6-1.5,8.2
				c-1,2.6-2.5,4.9-4.4,6.7c-1.7,1.7-3.7,3-5.9,3.9c-2.6,0.9-5.3,1.3-8,1.2h-5.4V44.8H99.2z"/>
			<path d="M146.4,35.5c4.7,0,8.2,1.1,10.5,3.2c2.3,2.1,3.4,5.4,3.4,9.8c0,3.1-0.4,6.1-1.3,9.1c-0.8,2.7-2.1,5.3-3.7,7.6
				c-1,1.5-2.4,2.7-4,3.6c-1.5,0.8-3.1,1.3-4.8,1.3s-3.3-0.4-4.8-1.2c-1.6-0.9-2.9-2.2-4-3.7c-1.6-2.3-2.9-4.9-3.7-7.6
				c-0.9-2.9-1.4-6-1.3-9.1c0-4.4,1.1-7.7,3.4-9.8C138.1,36.5,141.6,35.5,146.4,35.5z M140.8,49.1c0,1.6,0.1,3.2,0.4,4.7
				c0.3,1.5,0.7,3,1.3,4.4c0.4,1.1,1,2.1,1.7,3.1c0.5,0.6,1.3,1,2.1,1.1c0.5,0,1-0.2,1.4-0.5c0.5-0.3,1-0.8,1.2-1.4
				c1-1.6,1.7-3.4,2.2-5.3c0.5-2,0.8-4,0.8-6c0-2.2-0.4-3.8-1.2-4.7s-2.3-1.4-4.3-1.4s-3.5,0.4-4.3,1.4S140.8,47,140.8,49.1z"/>
			<path d="M189.4,69.2c-2.8,0.1-5.6-0.4-8.3-1.3c-2.2-0.8-4.2-2.1-5.8-3.8c-3.8-4.1-6-9.5-5.9-15.2c0-2,0.3-4,0.9-5.9
				c0.6-1.6,1.6-3.1,2.9-4.3c1.1-1,2.4-1.7,3.8-2.1c1.9-0.5,3.9-0.7,5.8-0.6h9.6l1.9,7.6h-10.6c-2.4,0-4,0.5-5,1.5s-1.4,2.5-1.4,4.7
				c-0.1,2.9,0.8,5.8,2.6,8.1c1.8,2.1,4.3,3.5,7,3.8V54h-3.3v-7.4h11.1v22.7h-5.2L189.4,69.2z M179.3,27.7c0.1,0.7,0.4,1.3,0.9,1.8
				c0.7,0.4,1.5,0.6,2.4,0.5c0.8,0,1.6-0.2,2.4-0.5c0.5-0.4,0.9-1.1,0.9-1.8h3c0,1.7-0.7,3.4-1.8,4.6c-0.5,0.5-1.2,0.9-1.8,1.2
				c-0.9,0.3-1.8,0.4-2.7,0.4c-1.6,0.1-3.2-0.4-4.4-1.5c-1.2-1.3-1.8-2.9-1.8-4.6h3.1L179.3,27.7z"/>
			<path d="M222.9,35.9h4.9l1.8,7.5h-6.2c-2.5-0.1-4.9,0.5-7.1,1.8c-1.9,1.4-3.3,3.5-3.9,5.8h7.7v-6.2h8.2v24.4h-8.2V58.6h-8.5
				c0,1.8,0.3,3.6,0.9,5.4c0.5,1.8,1.3,3.5,2.3,5.2l-6.5,4.6c-1.6-2.6-2.8-5.3-3.7-8.2c-0.8-2.7-1.2-5.5-1.2-8.3
				c0-3,0.5-6.1,1.4-8.9c0.8-2.6,2.2-5,4.1-7.1c1.6-1.8,3.7-3.2,5.9-4C217.6,36.3,220.2,35.8,222.9,35.9z"/>
			<path d="M239,35.9h8.2v25.2h10.6l-2.1,8.1h-16.6L239,35.9L239,35.9z"/>
		</g>
		<rect y="0" class="st0" width="272.3" height="104.4"/>
		<polygon class="st1" points="48.3,86.4 48.6,89.3 48.4,92.5 48.3,93.4 45.2,93.1 40.9,91.6 35.8,88.7 31.9,86.4 25.6,81.3 
			21.8,76.9 19.1,71.6 16.5,67.5 14.8,60.9 14.3,57.6 13.8,53 13.8,49.5 14.6,43.9 15.5,40.2 17,36 18.7,31.6 20.8,28.2 23.5,24.1 
			27,20.4 30.4,17.1 34.8,14.2 39,11.7 40.4,11.3 44.3,14.1 47.8,17.4 53.1,23.5 56.3,27.6 58.9,31.2 60.5,30.5 63.8,29.5 
			64.6,30.6 65.9,34 66.5,37.4 66.9,40.2 67.5,43.5 69.4,43.5 70,43.4 69.5,48.3 68.9,51.6 68.5,55 67.5,58.5 65.9,62.9 64.6,66.5 
			66.9,67.5 68.4,68.9 66.5,71.4 63.2,75.7 60.5,78.7 55.1,83 54.1,83.3 54.1,85.4 53.7,87.6 51.2,86.2 49.4,85.6 		"/>
		<path class="st2" d="M45.2,89l-0.4,0.3c-14-4.8-24.5-16.2-27.2-30.4c7.7,1.1,15.5,5.8,21.1,13.6C42.3,77.3,44.5,83,45.2,89"/>
		<path class="st3" d="M46.6,16.3c1.2-0.1,2.3-0.1,3.5-0.1c21.2,0,35.1,17.2,35.1,36.9C85.2,73,71.5,89.8,51,89.8v-4.3
			C68.8,85.5,80.9,71,80.9,53c0-17.7-12.3-32.6-30.9-32.6C49.7,19.1,47.6,17.1,46.6,16.3"/>
		<path class="st3" d="M48.6,94c-19-4.1-35.2-20.6-35.2-42.1c0-17.9,10.7-34.4,27-41.2c7,4.6,14.1,13,18.6,20c1.5-0.9,3.2-1.5,5-1.7
			c2.2,3.1,3.4,10.4,3.9,14l2.5-0.2c-0.4,7.2-2,16.5-5.3,23.1c1.3,0.5,2.5,1.3,3.5,2.3c-2.4,6-8.9,12-14.1,15.3v2h-0.9V83
			c4.9-3.1,11.5-8.9,13.9-14.6c-1.1-0.9-2.4-1.6-3.7-2.1C67.3,60,69,51.2,69.4,44L67,44.1c-0.4-3.4-1.6-11-3.5-14
			c-1.8,0.3-3.4,1-4.9,2c-4.4-7-11.4-15.6-18.4-20.2c-15.1,6.4-26,22.1-26,40.1c0,20.6,15.2,36.6,33.5,40.9c0.3-2.2,0.3-4.3,0-6.5
			l0.9-0.1c0,0,0.1,1.1,0.2,2.6c0.1,1.6,0,3.2-0.2,4.8L48.6,94"/>
		<path d="M70.5,42.9L68,43.1c-0.4-3.6-1.7-10.9-3.9-14c-1.8,0.2-3.5,0.7-5,1.7c-4.5-7.1-11.6-15.4-18.6-20
			c-16.3,6.8-27,23.2-27,41.2c0,21.5,16.1,38,35.2,42.1l0.1-0.4c0.3-1.6,0.3-3.2,0.2-4.8c-0.1-1.5-0.2-2.6-0.2-2.6l-0.9,0.1
			c0.3,2.2,0.3,4.3,0,6.5C29.6,88.6,14.4,72.6,14.4,52c0-18,10.9-33.7,26-40.1C47.3,16.5,54.3,25,58.7,32c1.5-1,3.2-1.6,4.9-2
			c1.9,3,3.1,10.6,3.5,14l2.4-0.2C69,51.2,67.3,60,63.8,66.5c1.3,0.5,2.6,1.2,3.7,2.1c-2.4,5.6-9,11.4-13.9,14.6v2.5h0.9v-2
			c5.2-3.4,11.7-9.3,14.1-15.3c-1-1-2.2-1.7-3.5-2.3C68.5,59.5,70.1,50.2,70.5,42.9z"/>
		<path class="st3" d="M67.7,11.6V13H69c0.6,0,0.9-0.2,0.9-0.7c0-0.3-0.1-0.5-0.4-0.5c-0.2,0-0.5-0.1-0.7-0.1L67.7,11.6 M70.7,15.7
			h-1.2l-1.1-2.1h-0.8v2.1h-1v-4.9H69c0.5,0,1,0.1,1.4,0.3c0.4,0.3,0.5,0.7,0.5,1.2c0.1,0.6-0.4,1.2-1,1.3c-0.1,0-0.2,0-0.3,0
			L70.7,15.7 M68.5,9.9c-0.9,0-1.8,0.3-2.4,1c-0.6,0.7-0.9,1.6-0.9,2.5c0,0.9,0.3,1.8,0.9,2.5c0.6,0.6,1.5,1,2.4,1
			c0.9,0.1,1.7-0.3,2.3-1c0.6-0.7,0.9-1.6,0.9-2.5c0-0.9-0.3-1.8-0.9-2.5C70.3,10.2,69.4,9.8,68.5,9.9 M68.5,17.8
			c-1.2,0-2.3-0.4-3.1-1.3c-0.9-0.8-1.3-2-1.3-3.2c0-1.2,0.4-2.4,1.3-3.2c0.8-0.9,1.9-1.3,3.1-1.3c1.2,0,2.3,0.4,3.1,1.3
			c0.9,0.8,1.3,2,1.3,3.2c0,1.2-0.4,2.4-1.3,3.2C70.8,17.4,69.7,17.9,68.5,17.8"/>
		<rect x="47.2" y="8.8" class="st1" width="8" height="87"/>
		<path class="st4" d="M35.8,64.3c0,0,3.8-26.3,26.5-31.2c1.3,3.7,2.2,7.6,2.8,11.5c-6.4,0.5-12.6,2.9-17.6,6.9
			C42.9,55.1,39,59.4,35.8,64.3"/>
		<path class="st5" d="M64.1,69.7c-4,6.5-10.1,11.5-17.3,14.2c-1.1-4.6-3.2-9-6-12.9c-0.5-0.7-1-1.3-1.5-1.9
			C41.1,68.4,54.6,63.3,64.1,69.7"/>
		<path class="st6" d="M54.3,50.6c7.1-3.8,12.7-3.5,12.7-3.5c-0.6,6.5-2.4,12.9-5.2,18.8c-2.4-0.9-4.9-1.5-7.5-1.7V50.6 M38,67.5
			l-0.9-1c3.1-4.4,6.8-8.4,11-11.8v9.7C44.6,64.8,41.1,65.8,38,67.5z"/>
		<path class="st7" d="M54.3,28.7c0.9,1.2,1.7,2.4,2.5,3.6c-0.9,0.3-1.7,0.7-2.5,1.1V28.7 M40.8,15.5c2.5,2,5,4.1,7.3,6.4v15.5
			c-4,3.3-7.3,7.4-9.6,12.1c-2.3,4.4-3.9,9.1-4.9,13.9c-4.7-3.8-10.3-6.3-16.3-7.1C17.1,54.9,17,53.4,17,52
			C17,36.2,26.8,22,40.8,15.5z"/>
		<path class="st8" d="M49,93.9v-8.3c1.5-0.6,2.9-1.4,4.3-2.1v10.4H49 M49,64.3v-11c1.3-1.1,2.8-2,4.3-2.8v13.6
			C51.9,64.1,50.4,64.1,49,64.3z M53.3,10.7v23.2c-1.5,0.8-2.9,1.7-4.3,2.7V10.7L53.3,10.7z"/>
	</g>
</g>
</svg>
