<svg version="1.1" id="Layer_1" xmlns="http://www.w3.org/2000/svg" xmlns:xlink="http://www.w3.org/1999/xlink" x="0px" y="0px"
	 width="100%" viewBox="0 0 240 256" enable-background="new 0 0 240 256" xml:space="preserve">
<path fill="#000000" opacity="1.000000" stroke="none" 
	d="
M241.000000,174.541931 
	C233.686768,188.703598 225.683029,201.916763 214.137054,212.592484 
	C194.045471,231.169693 170.560150,241.960007 143.140427,244.444305 
	C89.978996,249.260849 44.656872,218.132355 25.878918,176.217255 
	C1.331420,121.423676 20.844711,55.632687 74.900940,25.378151 
	C121.131493,-0.496455 175.126221,6.332537 213.987549,42.333046 
	C225.373566,52.880859 233.796799,65.607399 240.761261,79.756882 
	C241.000000,83.361290 241.000000,86.722572 241.000000,90.541931 
	C238.049271,87.295944 237.200577,82.601990 235.103592,78.480202 
	C217.337906,43.560375 189.164642,22.097366 150.700500,15.621380 
	C90.825211,5.540521 33.675186,45.738693 21.650707,105.555977 
	C17.139162,127.999229 19.591385,149.890900 28.291288,171.089218 
	C29.453539,173.921173 30.896347,175.070618 34.291092,175.718399 
	C41.754120,177.142532 48.907879,180.069901 56.516499,181.201248 
	C62.104671,182.032166 63.241070,181.152771 63.673370,175.495712 
	C64.902176,159.415604 67.022507,143.439270 70.809341,127.761505 
	C71.788132,123.709259 70.623459,122.308830 67.108009,121.447792 
	C57.038315,118.981407 47.320988,115.585106 38.492645,110.016052 
	C36.887764,109.003670 34.805733,108.189407 35.222824,105.026474 
	C39.967785,104.679695 44.174034,106.906937 48.421032,108.259621 
	C56.341564,110.782341 64.082130,113.873718 71.876099,116.785973 
	C72.946663,117.185989 74.094521,117.722610 74.865097,118.524246 
	C78.814659,122.632996 83.520027,122.584435 88.257011,120.720268 
	C97.236290,117.186600 106.098000,113.353119 114.995705,109.613617 
	C121.612328,106.832794 128.167984,103.494011 135.473801,108.646484 
	C138.310287,101.137634 138.422714,94.186600 135.647263,87.305496 
	C132.842163,80.350845 130.067795,73.424583 129.037827,65.918327 
	C127.989426,58.277782 129.850067,51.729469 135.830505,46.606365 
	C136.453934,46.072296 137.167953,45.607712 137.910995,45.264881 
	C138.280228,45.094517 138.810745,45.273708 139.617081,45.310822 
	C139.256134,46.105778 139.141617,46.792873 138.738937,47.180832 
	C130.003464,55.596874 131.429123,65.098343 136.012833,74.728683 
	C139.088211,81.190018 142.504028,87.436340 143.828903,94.616920 
	C144.812637,99.948639 143.930862,105.165375 143.378754,111.295937 
	C152.154877,107.808411 159.571838,112.192909 167.366348,113.882828 
	C169.687119,114.385994 171.868164,114.643608 174.242447,114.059067 
	C177.264679,113.315010 180.359818,113.046471 181.455322,117.120712 
	C181.837021,118.540291 182.797806,118.861664 184.130508,118.654366 
	C185.638550,118.419792 186.705948,117.589485 186.777618,116.101616 
	C187.070969,110.010651 191.673737,108.058525 196.162720,105.657906 
	C204.997375,100.933319 213.074158,95.036789 220.863098,88.746391 
	C222.218689,87.651596 223.230362,85.863739 225.705002,86.212997 
	C226.195816,88.652428 224.219269,89.692795 222.895325,90.924881 
	C215.184631,98.100502 206.704529,104.284409 197.653122,109.628426 
	C194.029388,111.767914 193.207062,113.787338 194.689133,118.019798 
	C200.122253,133.535446 204.999390,149.245758 210.361572,165.730469 
	C216.047394,163.822266 221.948975,161.863724 227.833878,159.856262 
	C230.354218,158.996552 232.820847,157.977798 235.348129,157.140717 
	C236.929596,156.616882 238.619675,156.127243 239.823227,158.425705 
	C237.367477,161.431061 233.666122,162.727142 230.343857,164.248291 
	C223.695206,167.292480 216.776794,169.748093 209.965210,172.435226 
	C208.729782,172.922577 207.252151,173.764816 206.160828,172.824249 
	C201.559128,168.858231 200.906281,172.436981 199.696548,175.841217 
	C198.379242,179.548080 196.122070,182.726212 192.172485,184.018829 
	C189.748657,184.812103 189.418304,186.412872 189.310913,188.594650 
	C188.807373,198.825882 183.924927,203.473679 173.703690,203.306854 
	C173.451721,210.393738 169.918228,214.699097 162.604797,215.438828 
	C161.278061,215.573029 160.612183,216.455902 160.063019,217.558472 
	C156.093430,225.528183 150.741898,225.648758 143.764908,222.905411 
	C139.610626,221.271942 135.652756,221.561829 131.437119,221.282974 
	C123.984215,220.790009 115.932411,219.937698 109.468292,215.654358 
	C106.005005,213.359451 102.942436,211.402817 98.736954,210.647049 
	C94.895226,209.956619 91.062843,208.066437 89.055603,204.213257 
	C88.154350,202.483215 86.671173,201.965103 85.107841,201.490540 
	C83.285561,200.937378 81.517265,200.132919 80.593887,198.543808 
	C75.307152,189.445618 67.320709,185.792297 56.998230,185.547806 
	C48.853794,185.354889 41.245544,181.998520 32.577305,179.439316 
	C36.710464,188.646469 42.155140,195.928665 48.279285,202.631729 
	C73.326889,230.047104 104.615242,243.713959 141.553741,240.352112 
	C187.891281,236.134842 220.151535,211.205475 238.584946,168.462128 
	C239.174545,167.095001 239.788849,165.738525 240.695816,164.188538 
	C241.000000,167.361282 241.000000,170.722580 241.000000,174.541931 
M99.756599,121.439568 
	C93.166138,124.237457 86.634666,127.282379 79.156776,126.375687 
	C76.736061,126.082184 75.374123,127.277847 74.834312,129.524734 
	C74.292557,131.779739 73.671654,134.030670 73.347229,136.320480 
	C71.549515,149.009277 70.839241,161.785278 70.237129,174.577911 
	C69.864258,182.500092 71.689774,185.380661 79.913147,188.040161 
	C80.968903,186.673508 82.132347,185.283890 83.167427,183.804474 
	C85.687782,180.202133 90.139046,178.969986 92.791512,181.152496 
	C97.651970,185.151764 103.408096,185.090408 108.706726,186.948761 
	C109.786514,187.327454 110.905067,187.901443 111.713676,188.686325 
	C113.623337,190.539948 115.564850,191.148529 118.362167,190.799667 
	C123.110382,190.207535 129.377335,193.757660 130.104858,197.462173 
	C130.663162,200.305008 131.976074,201.192535 134.528351,201.887024 
	C137.384338,202.664169 140.285828,203.919220 140.215424,207.833008 
	C140.174164,210.126541 137.941299,212.733353 140.965729,214.651062 
	C143.230728,216.087234 145.682861,217.195786 148.355042,217.542831 
	C151.862717,217.998398 155.188492,217.640488 156.544815,213.652573 
	C157.993103,209.394257 154.441330,208.767883 151.821991,207.473984 
	C145.359085,204.281479 138.941376,201.006973 133.222031,196.437866 
	C136.499756,195.409546 139.041641,197.044983 141.623581,198.254532 
	C147.801544,201.148666 153.800110,204.416519 160.238129,206.762100 
	C163.461472,207.936462 166.213440,207.923340 167.878326,204.524963 
	C169.495651,201.223755 168.716202,198.429108 165.605423,196.289963 
	C160.371429,192.690750 154.681778,189.922287 149.075912,186.989609 
	C147.411896,186.119080 145.180420,185.818954 144.583801,183.289749 
	C146.489426,182.453613 147.782303,183.791656 149.195251,184.450790 
	C157.035217,188.108093 164.831696,191.860123 172.703629,195.446762 
	C176.966202,197.388901 180.764740,197.234177 183.302597,192.465729 
	C185.688400,187.982971 185.159180,183.720474 180.847366,180.511703 
	C176.051102,176.942474 170.848389,173.920380 165.834076,170.642593 
	C164.457916,169.743011 162.564453,169.345779 161.703201,166.449463 
	C169.641525,169.620087 176.086899,173.680054 182.742569,177.296158 
	C188.202972,180.262878 192.143112,178.641953 193.590958,172.631882 
	C195.035370,166.636047 193.628540,163.632767 186.387802,159.639297 
	C174.276886,152.959778 162.520599,145.711441 150.962112,138.143951 
	C141.931488,132.231506 132.700333,131.181290 123.253410,136.652832 
	C116.216423,140.728561 108.701683,139.649200 101.330711,139.090637 
	C97.236588,138.780396 94.280525,135.550629 93.926018,131.409653 
	C93.596046,127.555290 97.389969,127.002800 100.151161,126.061890 
	C103.240578,125.009132 105.957382,123.776993 106.302933,119.867157 
	C103.926743,119.202179 102.280922,120.597359 99.756599,121.439568 
M147.420593,131.750793 
	C164.468552,139.100922 179.839142,149.354233 195.296234,159.451965 
	C197.750931,161.055557 200.043732,162.960190 204.058868,161.783524 
	C199.182953,147.891785 195.702499,133.845795 190.265778,120.264977 
	C180.997574,124.574936 172.370041,124.176689 163.649857,121.734650 
	C155.970306,119.584030 148.272354,117.499130 140.594208,115.343582 
	C138.469940,114.747215 136.458054,114.339226 134.343079,115.529778 
	C129.692459,118.147690 124.595924,118.742462 119.364861,118.433418 
	C116.952248,118.290886 114.647858,118.558784 112.794655,120.196442 
	C108.385971,124.092377 104.906662,129.191788 98.129051,129.940491 
	C102.193069,135.483505 110.019455,137.047562 116.734138,133.333237 
	C126.590599,127.880989 136.460098,128.560638 147.420593,131.750793 
M122.267647,195.048431 
	C118.537704,193.289352 115.869591,194.487457 114.147278,198.057175 
	C113.144287,200.136032 112.246208,202.267654 111.358559,204.399521 
	C109.808899,208.121307 110.857697,210.700546 114.606682,212.415604 
	C118.497414,214.195480 121.268700,213.476379 123.077171,209.494232 
	C123.829689,207.837234 124.629211,206.194016 125.525352,204.611328 
	C127.784477,200.621445 127.505074,197.399765 122.267647,195.048431 
M97.440155,204.151062 
	C98.684883,204.608276 99.895515,205.242279 101.180626,205.490143 
	C105.324577,206.289383 106.730911,203.128052 108.013443,200.267136 
	C109.266983,197.470932 111.266930,194.220352 107.889984,191.671265 
	C105.083313,189.552643 101.871437,187.805862 98.583450,191.343414 
	C94.361168,195.886185 93.645317,200.450043 97.440155,204.151062 
M92.595787,193.026276 
	C95.667511,187.476913 95.126213,184.820190 90.565292,183.895874 
	C86.073601,182.985611 85.877159,187.152496 84.433243,189.595795 
	C82.819550,192.326370 82.925980,194.796082 86.266220,196.573273 
	C89.870468,198.490891 90.895638,195.952637 92.595787,193.026276 
M133.396194,216.033997 
	C136.105942,214.614655 135.637100,211.809647 136.078583,209.501984 
	C136.664200,206.440872 134.368835,204.539902 131.384521,205.338547 
	C129.493164,205.844696 125.769165,212.395554 126.454048,214.391403 
	C127.595299,217.717163 130.330978,216.600479 133.396194,216.033997 
M121.372910,114.673515 
	C125.033020,114.590714 128.866074,115.204674 132.142838,112.046402 
	C126.395508,108.813560 121.768166,110.812729 116.452156,114.374077 
	C118.425224,114.507011 119.540985,114.582184 121.372910,114.673515 
M153.303696,114.711082 
	C171.633728,120.347878 174.660919,120.760178 178.230408,117.282814 
	C168.529190,119.874313 160.165329,114.307816 150.922852,113.815376 
	C151.507767,114.076096 152.092667,114.336823 153.303696,114.711082 
z"/>
<path fill="#000000" opacity="1.000000" stroke="none" 
	d="
M109.973228,72.788879 
	C116.677391,72.946045 122.653412,74.015961 127.881241,77.745262 
	C131.633545,80.421967 134.124390,83.877174 133.545502,88.646049 
	C133.239960,91.163162 135.226974,92.877365 135.451355,97.099739 
	C130.754791,91.288132 126.171036,94.063393 121.635902,94.650124 
	C113.608109,95.688713 107.255135,92.182182 102.442612,86.283844 
	C98.043892,80.892677 94.444084,74.849663 90.981079,68.419983 
	C97.090050,71.090790 102.964806,73.400429 109.973228,72.788879 
M120.018456,78.333199 
	C113.799156,76.074867 107.202530,76.632965 100.547791,75.160980 
	C105.464653,86.900337 116.402481,94.990387 130.728989,87.506386 
	C128.670624,83.057625 125.042923,80.481201 120.018456,78.333199 
z"/>
<path fill="#000000" opacity="1.000000" stroke="none" 
	d="
M155.157562,70.572357 
	C150.331009,72.653717 145.480453,72.300537 140.365799,73.543427 
	C141.750809,68.700340 145.632828,69.234276 148.529327,68.801544 
	C155.309097,67.788658 159.708466,64.118492 162.297348,57.978798 
	C162.471558,57.565670 162.385147,57.042656 162.453201,56.120052 
	C153.539551,58.984184 142.756287,58.108105 140.327332,71.106155 
	C137.822403,66.194702 138.801239,61.933197 142.565674,58.642624 
	C145.405777,56.160027 148.832031,54.789558 152.448944,54.152088 
	C158.494904,53.086514 163.952148,50.993347 168.382278,46.588051 
	C168.788193,46.184399 169.537750,46.126316 170.749557,46.377834 
	C165.582916,54.380802 165.100937,65.147469 155.157562,70.572357 
z"/>
</svg>