<svg version="1.1" id="Layer_1" xmlns="http://www.w3.org/2000/svg" xmlns:xlink="http://www.w3.org/1999/xlink" x="0px" y="0px"
	 width="100%" viewBox="0 0 528 256" enable-background="new 0 0 528 256" xml:space="preserve">
<path fill="#000000" opacity="1.000000" stroke="none" 
	d="
M80.511833,23.406757 
	C144.174255,-5.017765 218.058655,27.191069 240.244583,92.735153 
	C263.654572,161.895447 219.702560,234.534027 147.215546,246.482330 
	C88.035789,256.237152 29.895832,218.371307 15.234581,160.524750 
	C0.977669,104.273529 28.523916,46.166676 80.511833,23.406757 
M139.006607,93.935555 
	C140.865692,100.519089 140.602432,107.225693 139.034836,114.988670 
	C145.867203,111.420021 151.211288,113.457176 156.682404,115.022919 
	C160.630905,116.152916 164.575653,118.348526 168.789810,117.293121 
	C173.628754,116.081261 177.376465,116.137726 178.052353,121.996628 
	C181.590485,122.122055 182.909958,120.269875 183.294998,117.463127 
	C183.737045,114.240685 185.390549,112.131706 188.394928,110.641235 
	C199.039825,105.360252 208.725922,98.607254 217.749115,90.884514 
	C218.875595,89.920372 219.899994,88.135925 222.062988,89.775642 
	C220.762512,93.074722 217.945450,94.980919 215.442551,97.048981 
	C208.762253,102.568748 201.931686,107.937500 194.364761,112.193008 
	C190.244614,114.510109 188.403778,116.879051 190.938171,121.664940 
	C192.624573,124.849525 193.319153,128.560440 194.448380,132.038788 
	C198.379883,144.148941 202.307327,156.260437 206.397720,168.869003 
	C214.502914,166.053879 222.329376,163.315567 230.172470,160.625732 
	C232.103683,159.963409 234.221481,158.553802 235.780441,161.437714 
	C235.474655,161.866287 235.279800,162.395493 234.901886,162.631546 
	C225.507889,168.498718 215.096863,172.061066 204.795502,175.872086 
	C203.622513,176.306030 202.517700,176.275970 201.482239,175.513931 
	C198.668900,173.443451 197.150131,174.099319 196.174301,177.528931 
	C194.895935,182.021729 192.351517,185.712738 187.577713,187.172409 
	C185.765656,187.726486 185.487503,188.925476 185.320847,190.550339 
	C184.074234,202.705994 181.239609,205.591553 169.703964,206.635956 
	C168.394806,214.768692 166.984589,216.403534 159.138962,218.325760 
	C157.712509,218.675262 156.735229,219.166687 156.097534,220.514389 
	C152.282501,228.576996 146.288315,228.565125 138.880325,225.635025 
	C136.603058,224.734299 134.433273,222.707382 131.862686,223.567093 
	C123.147438,226.481812 115.185417,222.552811 107.799339,219.660370 
	C102.687210,217.658401 97.936859,214.485229 92.373352,212.713074 
	C86.014168,210.687454 82.142685,204.297867 76.227676,201.007324 
	C74.372124,199.975067 73.577957,197.197983 71.918571,195.617996 
	C67.731125,191.630936 63.066502,189.055176 56.830151,189.054764 
	C47.497608,189.054138 38.754963,185.374344 29.682005,183.030914 
	C29.496525,185.435333 30.718340,186.910065 31.606062,188.431213 
	C58.026405,233.703293 113.996773,254.759583 164.019180,238.283035 
	C223.774963,218.600464 256.022522,154.536743 236.349289,94.590431 
	C220.196045,45.369873 170.681030,12.562647 118.982582,17.486650 
	C88.879128,20.353842 63.048470,32.959740 43.604042,56.259682 
	C14.080482,91.637291 7.651912,131.300568 24.556938,174.430542 
	C25.137669,175.912155 25.446159,177.993439 27.427534,178.206085 
	C35.893776,179.114700 43.532990,183.321106 52.088848,184.044785 
	C58.571411,184.593094 59.211750,184.260483 59.703236,177.914642 
	C60.909550,162.339249 62.886703,146.830719 66.651505,131.670090 
	C67.885979,126.698929 66.594604,125.211388 62.121010,124.147919 
	C52.535576,121.869270 43.307938,118.507164 34.851887,113.328751 
	C33.100834,112.256416 30.879827,111.353745 31.118576,108.558624 
	C33.134773,107.010765 35.023640,108.236298 36.796669,108.853424 
	C46.537991,112.243988 56.237545,115.754364 65.959633,119.200500 
	C67.683022,119.811378 69.573082,120.133667 70.873688,121.523895 
	C74.784195,125.703804 79.408600,125.361916 84.246933,123.753777 
	C93.744461,120.597069 102.686630,116.102249 111.895172,112.248787 
	C118.228539,109.598488 124.557991,106.653023 131.431824,111.645584 
	C133.634659,106.086708 134.172684,100.942886 133.208237,95.611687 
	C132.189880,89.982491 129.208511,85.044754 127.601997,79.621155 
	C125.514915,72.575172 123.358337,65.540421 125.852501,58.132477 
	C127.423538,53.466343 130.269165,50.034191 135.007919,48.443352 
	C133.499695,52.046387 130.496277,54.573353 129.361053,58.333755 
	C126.996880,66.164955 129.645218,73.102837 133.041397,79.867615 
	C135.211548,84.190285 137.483124,88.442993 139.006607,93.935555 
M104.152809,121.917038 
	C104.405098,121.573090 104.958527,121.198624 104.087898,120.949181 
	C103.957832,120.911911 103.777412,121.045135 103.621719,121.103333 
	C94.963310,124.340446 86.959244,129.960587 77.203918,129.275604 
	C72.431160,128.940475 70.793365,130.883896 70.035645,135.207062 
	C67.616493,149.009369 66.960426,162.948318 66.307381,176.897125 
	C65.891678,185.776382 67.242401,187.860153 75.812904,191.168488 
	C76.863258,189.821854 78.054344,188.455444 79.065407,186.966766 
	C81.542488,183.319519 86.001465,182.072479 88.669472,184.156174 
	C93.702721,188.087097 99.761024,187.864868 105.059898,190.218140 
	C106.268982,190.755127 107.553268,191.343781 108.482452,192.240692 
	C110.069557,193.772675 111.681458,193.973358 113.852066,193.786606 
	C119.853401,193.270325 124.671761,196.425003 126.409477,201.858902 
	C127.052277,203.868942 128.456070,204.219925 130.071869,204.696609 
	C134.635101,206.042831 137.548782,208.438446 135.698975,213.797852 
	C135.237335,215.135391 135.276505,216.498169 136.617264,217.368469 
	C140.192856,219.689423 144.038574,221.283279 148.389664,220.544373 
	C151.199615,220.067200 152.427658,217.979462 152.958710,215.272797 
	C153.532745,212.347122 151.235092,212.137283 149.542130,211.244492 
	C143.652374,208.138474 137.761826,205.032669 131.921204,201.836105 
	C130.874557,201.263260 129.270172,200.959915 129.493362,198.885620 
	C132.819748,198.602539 135.527252,200.340286 138.331528,201.607010 
	C143.946503,204.143295 149.464706,206.899063 155.121033,209.336456 
	C158.222443,210.672897 161.631668,211.841934 163.785873,207.716751 
	C165.970871,203.532608 164.006836,200.642075 160.470078,198.575745 
	C155.441071,195.637543 150.272995,192.938202 145.221588,190.037094 
	C143.588287,189.099075 141.377243,188.762527 140.693817,186.206268 
	C142.597168,185.633179 143.937180,186.794434 145.347488,187.454163 
	C153.186905,191.121384 160.975388,194.899231 168.848740,198.491364 
	C172.883347,200.332138 176.609344,200.311081 179.167435,195.831345 
	C181.702164,191.392532 181.194016,187.143127 177.164688,183.782501 
	C174.623947,181.663406 171.710968,179.985947 168.937897,178.151276 
	C165.265915,175.721909 161.567535,173.332489 157.880493,170.925888 
	C158.182861,170.472931 158.485214,170.019958 158.787582,169.566986 
	C165.509247,173.152237 172.247147,176.707458 178.947388,180.332336 
	C184.217514,183.183517 188.034592,181.594131 189.527390,175.838043 
	C190.968521,170.281143 189.308472,166.885132 183.226807,163.194092 
	C171.412109,156.023605 159.373413,149.198303 147.812164,141.641479 
	C138.046982,135.258621 128.506210,134.273087 118.284103,140.050415 
	C111.469376,143.901962 104.057999,142.593521 96.807808,142.046539 
	C95.038933,141.913071 93.498352,140.612900 92.234756,139.187439 
	C88.385399,134.844894 88.908371,131.548767 94.338684,129.797409 
	C98.591469,128.425812 101.642151,126.064499 104.152809,121.917038 
M199.452255,164.094986 
	C195.849823,150.354218 191.153091,136.983170 186.431137,123.097076 
	C177.582535,127.743080 169.058105,127.289474 160.533356,125.074471 
	C152.339005,122.945320 144.220749,120.522903 136.072571,118.216866 
	C134.648132,117.813721 133.265457,117.069954 131.753326,117.907829 
	C126.179924,120.996101 120.167480,121.751274 113.901176,121.435875 
	C112.651878,121.372986 111.147713,121.716103 110.133812,122.413742 
	C104.800377,126.083473 101.062546,131.843262 94.006783,133.509308 
	C98.850403,138.291931 106.708221,139.788406 112.652710,136.453995 
	C124.286812,129.928162 135.852844,131.246063 147.107681,136.403320 
	C162.849472,143.616608 177.288071,153.202744 191.725922,162.716614 
	C194.008926,164.221008 196.147583,166.378723 199.452255,164.094986 
M113.662025,216.449081 
	C117.571381,215.528244 124.008530,205.779877 123.036324,202.162781 
	C122.875374,201.563965 122.382607,201.022842 121.954727,200.532181 
	C117.803642,195.771744 112.608200,196.355026 109.632133,201.899734 
	C104.823509,210.858673 105.447151,213.528595 113.662025,216.449081 
M105.535378,199.156326 
	C106.042702,196.485703 104.920578,194.840912 102.508430,193.649918 
	C97.393143,191.124298 94.834366,192.355560 91.662514,199.043304 
	C90.214310,202.096802 89.226852,204.913147 93.167549,207.003647 
	C98.005997,209.570374 100.782784,209.102081 103.197823,204.875992 
	C104.089737,203.315201 104.639008,201.558609 105.535378,199.156326 
M90.363373,192.837128 
	C91.435638,189.564575 89.899261,187.872787 86.896751,186.971359 
	C82.899933,185.771454 82.138710,189.106552 80.951530,191.414124 
	C79.727455,193.793427 77.904388,196.538422 81.168640,198.878342 
	C83.625938,200.639801 85.943207,201.162460 87.625603,197.805908 
	C88.361816,196.337082 89.239067,194.938950 90.363373,192.837128 
M131.667511,215.339767 
	C132.010254,212.187592 133.697281,207.993561 128.052353,208.377945 
	C123.876938,208.662247 123.979164,213.107391 122.572350,215.898926 
	C121.844276,217.343628 122.740532,219.090378 124.428398,219.399429 
	C127.453163,219.953262 130.551727,220.097672 131.667511,215.339767 
M152.406448,117.315567 
	C150.186401,116.787643 147.966339,116.259712 145.746292,115.731789 
	C158.460724,122.080200 170.975906,124.139381 175.250961,119.617577 
	C166.867767,121.497925 159.992798,119.642822 152.406448,117.315567 
M118.609856,117.643013 
	C121.888718,117.565552 125.357330,118.119347 128.134827,115.019913 
	C122.407272,111.989174 117.834267,113.622780 112.704628,117.386841 
	C114.955200,117.508667 116.375534,117.585548 118.609856,117.643013 
z"/>
<path fill="#000000" opacity="1.000000" stroke="none" 
	d="
M459.093628,213.105972 
	C460.141937,215.095337 459.545807,216.098007 457.783173,216.102646 
	C454.023315,216.112549 450.197845,216.793350 445.797607,215.233505 
	C453.461273,202.668884 449.933167,188.969910 450.603271,175.722733 
	C450.963562,168.599976 451.560394,161.257980 444.181793,155.642303 
	C450.070099,154.044159 454.829437,154.616058 459.514923,154.853073 
	C462.139740,154.985840 462.531433,157.684845 463.386139,159.580460 
	C468.722870,171.417084 473.975861,183.291473 479.304596,195.131729 
	C479.824249,196.286407 480.021637,197.717789 481.647675,198.558929 
	C487.292389,185.897263 493.230621,173.430954 498.361725,160.640854 
	C500.368835,155.637772 503.092010,153.967194 508.042236,154.620453 
	C510.651581,154.964767 513.353699,154.243195 515.739746,155.049835 
	C507.070312,171.709793 512.700623,189.500565 511.539490,206.685913 
	C511.351685,209.465332 512.952942,212.365616 513.885986,215.792969 
	C508.363495,216.510239 503.333191,216.256302 497.742859,215.928116 
	C501.874176,200.527039 499.307922,185.281769 499.181793,169.842392 
	C497.599915,173.183273 495.951538,176.494568 494.448700,179.870636 
	C490.048492,189.755508 485.733612,199.678452 481.315369,209.555222 
	C480.536652,211.295959 480.229492,213.885651 477.808746,213.934921 
	C475.054047,213.991028 474.804657,211.141632 473.971954,209.298279 
	C467.688171,195.388519 461.509949,181.431061 454.677399,167.639053 
	C454.677399,179.354172 454.532715,191.072144 454.762543,202.782745 
	C454.834686,206.457794 456.467255,209.878647 459.093628,213.105972 
z"/>
<path fill="#000000" opacity="1.000000" stroke="none" 
	d="
M389.917969,190.972412 
	C388.792480,188.125259 387.028351,186.836502 384.320343,187.474304 
	C381.164978,188.217499 382.285950,190.931595 382.262054,192.856262 
	C382.167877,200.438309 381.490662,208.093201 385.021454,215.817993 
	C379.138428,216.390335 374.095581,216.352570 369.010529,215.910385 
	C372.001312,195.460312 372.271820,175.452118 369.037231,154.661102 
	C379.596161,155.201767 390.521759,153.137436 401.259918,156.391068 
	C406.719543,158.045319 409.872437,161.843933 410.638977,167.530762 
	C411.458435,173.610336 409.953613,179.229721 404.695160,182.406891 
	C399.934875,185.283051 399.941711,187.827438 402.761810,191.842667 
	C404.272064,193.992905 405.117035,196.604050 406.318878,198.978516 
	C409.288025,204.844818 412.152954,210.788620 418.839417,215.309647 
	C412.954102,216.657272 408.383118,216.379440 403.860382,215.859375 
	C402.027557,215.648621 401.575348,213.599106 400.824646,212.151962 
	C397.224579,205.212311 393.661804,198.253281 389.917969,190.972412 
M395.842255,160.523163 
	C392.747162,158.590698 389.317841,158.342682 385.778931,158.342819 
	C383.216583,158.342911 382.190582,159.433121 382.214417,161.930603 
	C382.273041,168.075745 382.261139,174.221832 382.233490,180.367355 
	C382.223145,182.663391 383.280060,183.615631 385.569122,183.657562 
	C390.593689,183.749588 395.292542,183.142715 398.033173,178.200562 
	C400.919098,172.996399 400.176514,165.605072 395.842255,160.523163 
z"/>
<path fill="#000000" opacity="1.000000" stroke="none" 
	d="
M519.023987,86.868050 
	C519.032349,82.388985 518.835632,78.377632 519.101990,74.397278 
	C519.523682,68.096214 517.382874,62.427658 514.532776,56.616585 
	C519.271362,55.343616 523.278015,55.526749 527.215271,56.241455 
	C527.404724,56.831818 527.688721,57.265175 527.576477,57.432228 
	C522.273071,65.324905 523.366089,74.270142 523.342041,83.024277 
	C523.316345,92.351944 523.417480,101.681221 523.258423,111.006294 
	C523.222656,113.104355 524.597107,115.999527 521.598877,117.161125 
	C518.098145,118.517380 517.011902,115.273880 515.525574,113.274376 
	C505.888794,100.310951 496.347107,87.276924 486.747742,74.285629 
	C485.677551,72.837265 484.858856,71.135574 482.022919,69.600609 
	C484.056183,85.630005 478.296204,101.583092 487.524780,116.618256 
	C482.913025,117.892311 478.646576,117.402489 474.024475,116.924507 
	C481.266632,100.903160 476.657898,84.404518 478.024445,68.356255 
	C478.437195,63.509415 475.102386,60.521118 472.626038,57.057621 
	C479.821899,53.963261 485.983734,55.379086 490.190948,60.982723 
	C498.590332,72.169945 506.934998,83.398285 515.352173,94.572052 
	C516.419373,95.988785 517.208313,97.721992 519.553650,98.818542 
	C519.367920,94.776756 519.197266,91.063210 519.023987,86.868050 
z"/>
<path fill="#000000" opacity="1.000000" stroke="none" 
	d="
M366.307800,79.038124 
	C366.307129,85.528076 366.345551,91.524605 366.299683,97.520500 
	C366.197083,110.934174 358.619629,118.589478 345.241516,118.851494 
	C331.251038,119.125504 322.167694,111.075966 321.826324,97.840302 
	C321.624573,90.017006 321.722900,82.183815 321.799408,74.356178 
	C321.857819,68.381836 321.749573,62.452053 318.473541,56.384163 
	C324.575562,55.389969 329.613068,55.747040 334.774109,55.961758 
	C336.083923,59.258938 333.487213,61.570427 333.372406,64.289146 
	C332.824036,77.272415 332.531311,90.273537 333.463470,103.230591 
	C333.952393,110.026649 339.621674,114.472282 346.508301,114.621124 
	C354.085907,114.784904 360.887817,109.569069 361.539032,102.064308 
	C362.546875,90.450333 362.140808,78.773888 361.695496,67.123711 
	C361.543701,63.153015 358.041199,60.556404 356.999237,56.390152 
	C361.995422,55.427151 366.597992,55.508072 372.464874,56.411358 
	C366.783661,63.420547 365.726318,70.798111 366.307800,79.038124 
z"/>
<path fill="#000000" opacity="1.000000" stroke="none" 
	d="
M391.264496,79.592377 
	C392.477448,84.312317 398.270142,85.185127 402.857330,81.998329 
	C405.411987,80.223557 406.461975,76.795784 410.316467,75.528732 
	C411.509613,82.335808 411.093628,88.765915 410.595856,95.043510 
	C408.309418,95.816635 407.736542,94.319359 406.836914,93.471657 
	C405.388428,92.106743 404.130219,90.484650 402.521027,89.357521 
	C399.572815,87.292465 396.020172,87.295982 392.937744,88.468658 
	C389.972290,89.596802 391.285339,92.861053 391.296112,95.171463 
	C391.329102,102.262627 390.235596,109.508606 394.507263,116.752205 
	C388.451996,117.760185 383.311768,117.363945 378.087372,117.139893 
	C381.918610,96.703087 381.880768,76.694534 378.143646,56.570423 
	C379.421875,55.315807 381.170349,55.796829 382.768250,55.790298 
	C392.750977,55.749477 402.737152,55.919369 412.715363,55.703831 
	C416.854218,55.614429 419.352325,56.580040 419.734528,61.194000 
	C420.028229,64.739838 421.885437,68.111893 421.223938,72.042801 
	C417.548126,71.989265 416.235291,69.026962 414.962799,66.860283 
	C409.852753,58.159309 401.175995,60.404976 393.564758,59.525906 
	C391.284088,59.262493 391.269287,61.496296 391.260437,63.172298 
	C391.232391,68.496330 391.253815,73.820625 391.264496,79.592377 
z"/>
<path fill="#000000" opacity="1.000000" stroke="none" 
	d="
M259.255829,63.461945 
	C260.445923,55.768112 260.445923,55.765915 267.765900,55.765358 
	C280.760803,55.764366 293.756470,55.842720 306.750153,55.717037 
	C310.303162,55.682671 312.196045,56.563442 312.664093,60.539471 
	C313.211670,65.190659 314.650085,69.737267 314.713104,75.114243 
	C310.381195,73.622856 309.472748,70.102783 307.594421,67.599106 
	C304.420746,63.368828 301.447205,59.238358 295.184448,59.987823 
	C292.871338,60.264633 291.300293,60.755234 291.371216,63.426395 
	C291.768555,78.396408 290.355682,93.404587 292.223206,108.337303 
	C292.565796,111.076614 293.555267,113.735031 294.399200,117.028030 
	C288.819550,117.558662 283.637665,117.549614 278.234619,117.021637 
	C282.957153,100.119278 279.973602,83.251762 280.725830,66.559502 
	C280.821259,64.441872 281.944427,61.241543 278.956085,60.468204 
	C275.832947,59.659985 272.357391,59.481407 269.559784,62.138077 
	C266.255676,65.275764 264.075226,69.248840 261.352234,72.817116 
	C260.753021,73.602333 260.213593,74.484161 258.607574,74.619263 
	C256.406464,70.996147 259.319763,67.443878 259.255829,63.461945 
z"/>
<path fill="#000000" opacity="1.000000" stroke="none" 
	d="
M312.804382,210.766815 
	C320.553101,194.668472 325.701721,177.927765 332.176575,161.708252 
	C332.670135,160.471832 333.080902,159.201431 333.599670,157.976242 
	C334.295197,156.333664 334.623779,154.187515 336.945343,154.132217 
	C339.359619,154.074738 339.649231,156.297058 340.269440,157.930954 
	C344.226654,168.355881 348.105896,178.810349 352.038910,189.244507 
	C355.356873,198.046936 357.728210,207.256149 364.353760,215.616486 
	C358.318451,216.558899 353.409302,216.367172 348.530975,215.914658 
	C346.409149,215.717834 346.785614,213.818085 347.000366,212.348434 
	C347.841034,206.595825 345.401733,201.597046 343.411377,196.496353 
	C342.974213,195.375916 342.267883,194.279068 340.975372,194.238632 
	C335.823456,194.077484 330.666077,193.942352 325.514191,194.022247 
	C324.002441,194.045700 323.692291,195.703079 323.152740,196.935349 
	C320.509094,202.973007 320.591278,209.162323 322.561859,215.566559 
	C318.271942,216.523392 314.577759,216.504318 310.926270,215.705750 
	C310.164062,213.474564 311.904022,212.474335 312.804382,210.766815 
M330.042908,189.788544 
	C333.387451,189.506668 336.876282,190.496185 340.502655,188.813950 
	C338.212250,182.804688 336.580750,176.875488 333.253113,170.447601 
	C330.890503,176.541687 328.950165,181.600250 326.965576,186.641388 
	C326.066132,188.926056 327.161072,189.672028 330.042908,189.788544 
z"/>
<path fill="#000000" opacity="1.000000" stroke="none" 
	d="
M272.911133,158.556946 
	C268.298157,160.504486 266.343719,164.538284 263.660736,167.884232 
	C262.247955,169.646103 261.547302,172.092987 258.821686,172.956055 
	C256.341919,170.165604 258.397919,167.232422 258.804382,164.567200 
	C260.320465,154.626221 260.453094,154.648285 270.342621,154.650772 
	C282.327087,154.653778 294.316711,154.855789 306.293304,154.549088 
	C310.737305,154.435303 312.770630,155.978714 312.986267,160.246445 
	C313.198273,164.443314 315.236725,168.473923 314.341339,173.401764 
	C309.823364,171.423737 308.556274,167.169998 306.062042,164.130692 
	C303.190521,160.631638 300.294983,157.820206 295.249237,158.283112 
	C292.562805,158.529587 291.274261,159.426361 291.352264,162.194260 
	C291.769135,176.985077 290.369873,191.815399 292.210297,206.568726 
	C292.571167,209.461380 293.621338,212.268036 294.517090,215.749939 
	C288.980255,216.527939 283.827454,216.376984 278.211792,215.804474 
	C282.942688,198.970169 280.037445,182.164017 280.729034,165.511017 
	C281.031158,158.235413 280.761902,158.224228 272.911133,158.556946 
z"/>
<path fill="#000000" opacity="1.000000" stroke="none" 
	d="
M451.040161,69.104698 
	C457.557556,85.084770 461.692047,101.612770 470.717926,116.973099 
	C464.945862,117.585503 459.664154,117.559196 453.972290,116.923874 
	C455.507324,110.488914 453.168518,105.106895 451.258636,99.647743 
	C450.984467,98.863998 450.871338,97.848419 450.314606,97.366486 
	C445.417572,93.127403 439.554962,96.182381 434.180634,95.384140 
	C431.366089,94.966110 430.718933,97.317146 429.888153,99.362144 
	C427.606506,104.978706 427.826721,110.685425 429.377563,116.647835 
	C425.445709,117.847137 421.734924,117.406311 417.139099,116.949753 
	C419.202515,112.766075 421.999969,109.490425 423.458282,105.529465 
	C428.739838,91.184158 434.113586,76.872070 439.577759,62.595394 
	C440.525330,60.119629 440.454865,56.139793 443.850128,56.026657 
	C447.713562,55.897926 447.248047,60.264771 448.545624,62.715061 
	C449.548370,64.608673 450.130066,66.725243 451.040161,69.104698 
M446.305725,91.441490 
	C447.119324,90.999153 447.620636,90.321228 447.295502,89.411201 
	C445.267029,83.733231 443.192261,78.071770 440.756805,71.370110 
	C437.484131,78.534546 435.228455,84.616875 433.046021,91.593018 
	C437.954834,91.593018 441.749359,91.593018 446.305725,91.441490 
z"/>
<path fill="#000000" opacity="1.000000" stroke="none" 
	d="
M425.650208,172.178772 
	C426.051453,166.151794 424.123169,160.954849 422.695709,155.158401 
	C428.337280,154.360062 433.480865,154.520645 438.266418,154.933868 
	C435.268280,175.379776 435.223969,195.254990 438.243164,215.795502 
	C433.539459,216.640976 428.370026,216.184479 422.398254,216.016464 
	C427.713196,201.497955 424.968536,186.978424 425.650208,172.178772 
z"/>
<path fill="#000000" opacity="1.000000" stroke="none" 
	d="
M113.154449,76.463959 
	C122.892509,79.437309 129.092102,79.454239 130.597427,98.648277 
	C126.958206,95.304596 123.186752,96.487572 119.324310,97.334892 
	C111.432930,99.066032 105.052246,96.009911 99.538666,90.601456 
	C97.118233,88.227150 87.879250,74.149284 86.838692,70.870132 
	C91.452538,72.185638 94.948586,75.302391 99.333107,75.570663 
	C103.799385,75.843956 108.266228,76.107948 113.154449,76.463959 
M97.183060,80.028992 
	C104.738853,93.243279 113.531548,96.486603 126.593056,90.589294 
	C124.793839,85.895676 121.012962,83.403755 116.700089,81.613533 
	C110.646889,79.100914 103.984962,79.726967 97.723328,78.203873 
	C96.846329,77.990555 96.690849,78.743843 97.183060,80.028992 
z"/>
<path fill="#000000" opacity="1.000000" stroke="none" 
	d="
M161.290909,61.203300 
	C157.174454,73.306656 147.638062,75.874184 136.452133,76.266441 
	C137.475723,71.839355 141.323776,72.189644 144.203430,71.824387 
	C151.019791,70.959770 155.410965,67.255028 158.208344,61.273033 
	C158.454880,60.745831 158.404755,60.079891 158.565079,58.979736 
	C149.336243,62.025986 138.267654,61.156200 135.886505,74.310966 
	C133.576630,68.828041 135.067352,64.862595 138.761337,61.541870 
	C141.427551,59.145061 144.704071,57.907257 148.168350,57.239017 
	C154.132019,56.088661 159.728149,54.235149 164.095261,49.716499 
	C164.693741,49.097260 165.498032,48.849586 167.011612,49.381531 
	C166.669098,53.880001 162.182968,56.573570 161.290909,61.203300 
z"/>
</svg>